<mxfile host="app.diagrams.net" modified="2024-07-13T13:11:03.742Z" agent="Mozilla/5.0 (Windows NT 10.0; Win64; x64) AppleWebKit/537.36 (KHTML, like Gecko) Chrome/126.0.0.0 Safari/537.36" etag="qnX5kD7Wiqh9f7eRlDpn" version="24.6.5" type="github">
  <diagram name="Page-1" id="dJCIhgWivDZiX5F66QXF">
    <mxGraphModel dx="1059" dy="549" grid="1" gridSize="10" guides="1" tooltips="1" connect="1" arrows="1" fold="1" page="1" pageScale="1" pageWidth="850" pageHeight="1100" math="0" shadow="0">
      <root>
        <mxCell id="0" />
        <mxCell id="1" parent="0" />
      </root>
    </mxGraphModel>
  </diagram>
</mxfile>
